<?xml version="1.0" encoding="UTF-8"?>
<svg id="logosandtypes_com" data-name="logosandtypes com" xmlns="http://www.w3.org/2000/svg" viewBox="0 0 150 150">
  <defs>
    <style>
      .cls-1 {
        fill: #940dff;
      }

      .cls-2 {
        fill: none;
      }
    </style>
  </defs>
  <path class="cls-2" d="M0,0H150V150H0V0Z"/>
  <path class="cls-1" d="M105.94,103.73c2.49-1.8,5.89-1.6,8.06,.58h0c2.69,2.69,2.35,7.13-.71,9.37-7.69,5.62-17.15,8.95-27.41,8.95-26.45,0-47.73-22.15-46.33-48.93,1.31-24.19,21.3-43.47,45.49-43.91,10.55-.2,20.35,3.15,28.23,8.91,3.09,2.24,3.44,6.71,.78,9.42h0c-2.15,2.15-5.53,2.44-7.97,.64-5.91-4.33-13.28-6.82-21.21-6.55-18.06,.58-32.65,15.44-32.92,33.5-.29,19.04,15.06,34.54,34.05,34.54,7.4,0,14.33-2.42,19.95-6.51Z"/>
  <path class="cls-1" d="M85.91,137.05v.04c0,3.64,3.18,6.51,6.8,6.13,13.48-1.33,25.79-6.69,35.76-14.79,2.87-2.33,3.11-6.6,.49-9.2h0c-2.27-2.27-5.84-2.42-8.31-.4-8.09,6.6-18.13,10.95-29.1,12.08-3.2,.29-5.64,2.93-5.64,6.13Z"/>
  <path class="cls-1" d="M42.88,33.16h0c-2.6-2.6-6.89-2.35-9.2,.49-9.46,11.59-15.13,26.41-15.13,42.54s5.66,30.94,15.13,42.54c2.33,2.87,6.6,3.11,9.2,.49h0c2.27-2.27,2.42-5.84,.4-8.31-7.71-9.46-12.33-21.55-12.33-34.72s4.62-25.26,12.33-34.72c2.02-2.47,1.87-6.04-.4-8.31Z"/>
  <path class="cls-1" d="M85.91,15.33v.04c0,3.2,2.44,5.82,5.62,6.13,10.97,1.11,20.99,5.46,29.1,12.08,2.47,2.02,6.04,1.87,8.31-.4h0c2.6-2.6,2.35-6.89-.49-9.2-9.95-8.13-22.28-13.46-35.76-14.82-3.6-.36-6.77,2.51-6.77,6.15Z"/>
  <path class="cls-1" d="M85.91,89.27c-7.51,0-13.53-6.31-13.04-13.93,.42-6.42,5.55-11.68,11.99-12.17,2.49-.2,4.82,.31,6.86,1.31,2.38,1.16,5.24,.71,7.11-1.18h0c3.02-3.02,2.13-8.09-1.69-9.95-3.75-1.84-8.02-2.8-12.53-2.55-13.06,.67-23.61,11.37-24.1,24.43-.56,14.5,11.06,26.45,25.43,26.45,4.04,0,7.86-.96,11.26-2.62,3.8-1.87,4.64-6.93,1.62-9.93h0c-1.89-1.89-4.8-2.31-7.2-1.11-1.73,.78-3.69,1.24-5.73,1.24Z"/>
</svg>